<svg width="24" height="24" viewBox="0 0 24 24" fill="none" xmlns="http://www.w3.org/2000/svg">
<path d="M12 6H14C14.5305 6 15.0392 6.21071 15.4142 6.58579C15.7893 6.96086 16 7.46957 16 8V10L21.248 7.438C21.324 7.39366 21.4104 7.37015 21.4983 7.36985C21.5863 7.36956 21.6728 7.39248 21.7491 7.4363C21.8254 7.48012 21.8888 7.5433 21.9328 7.61945C21.9769 7.6956 22.0001 7.78202 22 7.87V16" fill="white"/>
<path d="M12 6H14C14.5305 6 15.0392 6.21071 15.4142 6.58579C15.7893 6.96086 16 7.46957 16 8V10L21.248 7.438C21.324 7.39366 21.4104 7.37015 21.4983 7.36985C21.5863 7.36956 21.6728 7.39248 21.7491 7.4363C21.8254 7.48012 21.8888 7.5433 21.9328 7.61945C21.9769 7.6956 22.0001 7.78202 22 7.87V16L12 6Z" stroke="white" stroke-width="2" stroke-linecap="round" stroke-linejoin="round"/>
<path d="M16 16C16 16.5304 15.7893 17.0391 15.4142 17.4142C15.0391 17.7893 14.5304 18 14 18H4C3.46957 18 2.96086 17.7893 2.58579 17.4142C2.21071 17.0391 2 16.5304 2 16V8C2 7.46957 2.21071 6.96086 2.58579 6.58579C2.96086 6.21071 3.46957 6 4 6H6" fill="white"/>
<path d="M16 16C16 16.5304 15.7893 17.0391 15.4142 17.4142C15.0391 17.7893 14.5304 18 14 18H4C3.46957 18 2.96086 17.7893 2.58579 17.4142C2.21071 17.0391 2 16.5304 2 16V8C2 7.46957 2.21071 6.96086 2.58579 6.58579C2.96086 6.21071 3.46957 6 4 6H6" stroke="white" stroke-width="2" stroke-linecap="round" stroke-linejoin="round"/>
<path d="M2 2L22 22" stroke="white" stroke-width="2" stroke-linecap="round" stroke-linejoin="round"/>
</svg>
