<svg width="200" height="51" viewBox="0 0 200 51" fill="none" xmlns="http://www.w3.org/2000/svg">
<path d="M0.851074 3.50932V2.49551H8.09261V3.50932H5.02703V11.7647H3.95286V3.50932H0.851074ZM12.8106 11.9759C12.2514 11.9759 11.7405 11.8673 11.2778 11.65C10.8151 11.4287 10.447 11.1109 10.1735 10.6965C9.89989 10.2781 9.76311 9.77123 9.76311 9.17582C9.76311 8.71719 9.84961 8.33097 10.0226 8.01718C10.1956 7.70338 10.441 7.4459 10.7588 7.24475C11.0766 7.0436 11.4528 6.88468 11.8873 6.76802C12.3218 6.65134 12.8005 6.56083 13.3236 6.49646C13.8425 6.43208 14.281 6.37577 14.639 6.32748C15.0011 6.27921 15.2768 6.20277 15.4658 6.09817C15.655 5.99357 15.7495 5.8246 15.7495 5.59126V5.37402C15.7495 4.74239 15.5603 4.24555 15.1822 3.88347C14.808 3.51736 14.269 3.33432 13.5649 3.33432C12.8971 3.33432 12.352 3.48117 11.9295 3.77484C11.5111 4.06853 11.2174 4.41451 11.0485 4.8128L10.0286 4.44468C10.2378 3.93778 10.5275 3.53345 10.8976 3.23173C11.2677 2.92598 11.6821 2.70672 12.1407 2.57396C12.5994 2.43717 13.064 2.36877 13.5347 2.36877C13.8888 2.36877 14.2569 2.41505 14.639 2.50757C15.0253 2.60011 15.3833 2.76104 15.7133 2.99034C16.0431 3.21564 16.3107 3.53145 16.5159 3.93778C16.721 4.34008 16.8236 4.85102 16.8236 5.47057V11.7647H15.7495V10.2983H15.6831C15.5543 10.5718 15.3632 10.8373 15.1097 11.0948C14.8563 11.3523 14.5385 11.5635 14.1563 11.7285C13.7741 11.8934 13.3256 11.9759 12.8106 11.9759ZM12.9554 10.9922C13.5267 10.9922 14.0215 10.8655 14.4399 10.6121C14.8584 10.3586 15.1802 10.0227 15.4054 9.60428C15.6348 9.18186 15.7495 8.71719 15.7495 8.21028V6.8706C15.669 6.94704 15.5342 7.01543 15.3452 7.07578C15.1601 7.13612 14.9448 7.19043 14.6994 7.23871C14.458 7.28297 14.2167 7.32118 13.9752 7.35338C13.7339 7.38556 13.5167 7.41372 13.3236 7.43786C12.8005 7.50223 12.354 7.6028 11.9838 7.73958C11.6137 7.87637 11.3301 8.06545 11.133 8.30684C10.9358 8.5442 10.8373 8.84995 10.8373 9.22409C10.8373 9.78732 11.0384 10.2238 11.4407 10.5336C11.843 10.8394 12.3479 10.9922 12.9554 10.9922ZM20.0208 11.7647V2.49551H21.095V6.66543H22.1028L25.5486 2.49551H26.9365L23.2191 6.95509L27.021 11.7647H25.633L22.4347 7.67923H21.095V11.7647H20.0208ZM31.7118 11.9759C31.1526 11.9759 30.6416 11.8673 30.179 11.65C29.7164 11.4287 29.3483 11.1109 29.0747 10.6965C28.8011 10.2781 28.6644 9.77123 28.6644 9.17582C28.6644 8.71719 28.7509 8.33097 28.9239 8.01718C29.0968 7.70338 29.3423 7.4459 29.6601 7.24475C29.9778 7.0436 30.354 6.88468 30.7886 6.76802C31.2231 6.65134 31.7018 6.56083 32.2248 6.49646C32.7437 6.43208 33.1823 6.37577 33.5403 6.32748C33.9024 6.27921 34.178 6.20277 34.3671 6.09817C34.5561 5.99357 34.6507 5.8246 34.6507 5.59126V5.37402C34.6507 4.74239 34.4616 4.24555 34.0835 3.88347C33.7093 3.51736 33.1703 3.33432 32.4662 3.33432C31.7984 3.33432 31.2533 3.48117 30.8308 3.77484C30.4123 4.06853 30.1188 4.41451 29.9497 4.8128L28.9299 4.44468C29.139 3.93778 29.4287 3.53345 29.7989 3.23173C30.169 2.92598 30.5833 2.70672 31.042 2.57396C31.5006 2.43717 31.9653 2.36877 32.436 2.36877C32.79 2.36877 33.1581 2.41505 33.5403 2.50757C33.9266 2.60011 34.2846 2.76104 34.6144 2.99034C34.9444 3.21564 35.212 3.53145 35.4171 3.93778C35.6223 4.34008 35.7249 4.85102 35.7249 5.47057V11.7647H34.6507V10.2983H34.5842C34.4556 10.5718 34.2645 10.8373 34.011 11.0948C33.7576 11.3523 33.4398 11.5635 33.0576 11.7285C32.6754 11.8934 32.2267 11.9759 31.7118 11.9759ZM31.8567 10.9922C32.4279 10.9922 32.9228 10.8655 33.3412 10.6121C33.7595 10.3586 34.0814 10.0227 34.3067 9.60428C34.536 9.18186 34.6507 8.71719 34.6507 8.21028V6.8706C34.5703 6.94704 34.4355 7.01543 34.2463 7.07578C34.0614 7.13612 33.8461 7.19043 33.6007 7.23871C33.3593 7.28297 33.1178 7.32118 32.8765 7.35338C32.6351 7.38556 32.4178 7.41372 32.2248 7.43786C31.7018 7.50223 31.2552 7.6028 30.885 7.73958C30.515 7.87637 30.2313 8.06545 30.0342 8.30684C29.8371 8.5442 29.7385 8.84995 29.7385 9.22409C29.7385 9.78732 29.9397 10.2238 30.342 10.5336C30.7442 10.8394 31.2492 10.9922 31.8567 10.9922ZM44.4981 11.7647V3.49122H41.9454C41.2816 3.49524 40.7768 3.63404 40.4308 3.90761C40.0888 4.18118 39.9178 4.58952 39.9178 5.13263C39.9178 5.67574 40.0807 6.08409 40.4066 6.35766C40.7325 6.62721 41.2073 6.76198 41.8308 6.76198H44.7998V7.77579H41.8308C41.1912 7.77579 40.648 7.67321 40.2015 7.46803C39.7589 7.26285 39.421 6.96313 39.1876 6.56887C38.9543 6.1746 38.8376 5.69586 38.8376 5.13263C38.8376 4.56538 38.9563 4.08663 39.1937 3.6964C39.4351 3.30213 39.7871 3.00442 40.2497 2.80327C40.7164 2.59809 41.2816 2.49551 41.9454 2.49551H45.524V11.7647H44.4981ZM38.2522 11.7647L40.9195 7.15423H42.0963L39.429 11.7647H38.2522ZM53.7238 5.95938V6.97319H48.5824V5.95938H53.7238ZM55.7127 3.50932V2.49551H62.9543V3.50932H59.8887V11.7647H58.8146V3.50932H55.7127ZM68.6861 11.9578C67.8854 11.9578 67.1774 11.7546 66.5619 11.3483C65.9504 10.942 65.4717 10.3807 65.1257 9.66463C64.7797 8.9445 64.6067 8.11373 64.6067 7.17233C64.6067 6.22288 64.7797 5.38809 65.1257 4.66796C65.4717 3.94382 65.9504 3.38058 66.5619 2.97828C67.1774 2.57195 67.8854 2.36877 68.6861 2.36877C69.4867 2.36877 70.1927 2.57195 70.8042 2.97828C71.4157 3.3846 71.8944 3.94783 72.2405 4.66796C72.5905 5.38809 72.7654 6.22288 72.7654 7.17233C72.7654 8.11373 72.5925 8.9445 72.2465 9.66463C71.9004 10.3807 71.4198 10.942 70.8042 11.3483C70.1927 11.7546 69.4867 11.9578 68.6861 11.9578ZM68.6861 10.9741C69.3297 10.9741 69.8748 10.8011 70.3215 10.4552C70.768 10.1092 71.1059 9.64854 71.3352 9.07323C71.5686 8.49794 71.6853 7.8643 71.6853 7.17233C71.6853 6.48036 71.5686 5.84472 71.3352 5.26539C71.1059 4.68607 70.768 4.2214 70.3215 3.8714C69.8748 3.52139 69.3297 3.34638 68.6861 3.34638C68.0465 3.34638 67.5012 3.52139 67.0506 3.8714C66.6041 4.2214 66.2642 4.68607 66.0308 5.26539C65.8015 5.84472 65.6869 6.48036 65.6869 7.17233C65.6869 7.8643 65.8015 8.49794 66.0308 9.07323C66.2642 9.64854 66.6041 10.1092 67.0506 10.4552C67.4973 10.8011 68.0424 10.9741 68.6861 10.9741Z" fill="#6058FF"/>
<path d="M42.0392 33.6732V41.8301H12.2353C6.18037 41.8301 1.25488 36.9046 1.25488 30.8497C1.25488 24.7948 6.18037 19.8693 12.2353 19.8693H42.0392V28.0261H14.2745C12.549 28.0261 11.1372 29.1242 11.1372 30.8497C11.1372 32.5752 12.549 33.6732 14.2745 33.6732H42.0392ZM62.1053 19.5555H85.0073C91.0622 19.5555 95.9877 24.7948 95.9877 30.8497C95.9877 36.9046 91.0622 42.1438 85.0073 42.1438H62.1053C56.0504 42.1438 51.125 36.9046 51.125 30.8497C51.125 24.7948 56.0504 19.5555 62.1053 19.5555ZM82.9681 27.7124H64.1446C62.4191 27.7124 61.0073 29.1242 61.0073 30.8497C61.0073 32.5752 62.4191 33.9869 64.1446 33.9869H82.9681C84.6936 33.9869 86.1053 32.5752 86.1053 30.8497C86.1053 29.1242 84.6936 27.7124 82.9681 27.7124ZM105.407 41.8301V19.8693H115.321L137.218 32.4183V19.8693H147.132V41.8301H137.218L115.321 29.281V41.8301H105.407ZM157.176 41.8301V19.8693H197.961V25.5163H167.09V28.0261H196.706V33.6732H167.09V41.8301H157.176Z" fill="#EF6323"/>
</svg>
