<svg width="200" height="51" viewBox="0 0 200 51" fill="none" xmlns="http://www.w3.org/2000/svg">
<path d="M0.85083 3.50936V2.49554H8.09237V3.50936H5.02679V11.7647H3.95262V3.50936H0.85083ZM12.8103 11.9759C12.2511 11.9759 11.7402 11.8673 11.2776 11.65C10.8149 11.4288 10.4468 11.111 10.1732 10.6966C9.89965 10.2782 9.76287 9.77127 9.76287 9.17585C9.76287 8.71723 9.84936 8.331 10.0224 8.01721C10.1953 7.70341 10.4407 7.44593 10.7586 7.24478C11.0764 7.04363 11.4526 6.88472 11.887 6.76805C12.3215 6.65137 12.8003 6.56086 13.3233 6.49649C13.8423 6.43212 14.2807 6.3758 14.6388 6.32751C15.0009 6.27924 15.2766 6.20281 15.4656 6.09821C15.6547 5.99361 15.7492 5.82464 15.7492 5.59129V5.37405C15.7492 4.74243 15.5601 4.24558 15.1819 3.8835C14.8078 3.5174 14.2687 3.33435 13.5647 3.33435C12.8968 3.33435 12.3517 3.4812 11.9293 3.77487C11.5109 4.06856 11.2172 4.41455 11.0482 4.81283L10.0284 4.44472C10.2376 3.93782 10.5272 3.53349 10.8974 3.23176C11.2675 2.92601 11.6819 2.70676 12.1405 2.574C12.5991 2.4372 13.0638 2.36881 13.5345 2.36881C13.8886 2.36881 14.2567 2.41508 14.6388 2.50761C15.025 2.60014 15.3831 2.76107 15.713 2.99038C16.0428 3.21567 16.3104 3.53149 16.5156 3.93782C16.7207 4.34012 16.8233 4.85106 16.8233 5.4706V11.7647H15.7492V10.2983H15.6828C15.5541 10.5719 15.363 10.8374 15.1095 11.0949C14.856 11.3523 14.5383 11.5636 14.156 11.7285C13.7738 11.8934 13.3253 11.9759 12.8103 11.9759ZM12.9552 10.9923C13.5265 10.9923 14.0213 10.8655 14.4397 10.6121C14.8581 10.3586 15.1799 10.0227 15.4052 9.60431C15.6346 9.18189 15.7492 8.71723 15.7492 8.21031V6.87064C15.6687 6.94707 15.5339 7.01546 15.3449 7.07582C15.1598 7.13616 14.9445 7.19047 14.6992 7.23874C14.4577 7.283 14.2164 7.32121 13.975 7.35341C13.7337 7.38559 13.5164 7.41375 13.3233 7.43789C12.8003 7.50226 12.3537 7.60283 11.9836 7.73962C11.6135 7.8764 11.3298 8.06549 11.1327 8.30687C10.9356 8.54423 10.837 8.84998 10.837 9.22413C10.837 9.78736 11.0382 10.2239 11.4405 10.5336C11.8428 10.8394 12.3477 10.9923 12.9552 10.9923ZM20.0206 11.7647V2.49554H21.0947V6.66546H22.1026L25.5483 2.49554H26.9363L23.2189 6.95512L27.0207 11.7647H25.6328L22.4345 7.67927H21.0947V11.7647H20.0206ZM31.7116 11.9759C31.1524 11.9759 30.6414 11.8673 30.1788 11.65C29.7162 11.4288 29.3481 11.111 29.0745 10.6966C28.8009 10.2782 28.6641 9.77127 28.6641 9.17585C28.6641 8.71723 28.7507 8.331 28.9236 8.01721C29.0965 7.70341 29.342 7.44593 29.6598 7.24478C29.9776 7.04363 30.3538 6.88472 30.7883 6.76805C31.2228 6.65137 31.7015 6.56086 32.2245 6.49649C32.7435 6.43212 33.182 6.3758 33.5401 6.32751C33.9022 6.27924 34.1777 6.20281 34.3669 6.09821C34.5559 5.99361 34.6504 5.82464 34.6504 5.59129V5.37405C34.6504 4.74243 34.4614 4.24558 34.0832 3.8835C33.7091 3.5174 33.17 3.33435 32.466 3.33435C31.7981 3.33435 31.253 3.4812 30.8305 3.77487C30.4121 4.06856 30.1185 4.41455 29.9495 4.81283L28.9296 4.44472C29.1388 3.93782 29.4284 3.53349 29.7986 3.23176C30.1687 2.92601 30.5831 2.70676 31.0418 2.574C31.5003 2.4372 31.965 2.36881 32.4358 2.36881C32.7898 2.36881 33.1579 2.41508 33.5401 2.50761C33.9264 2.60014 34.2844 2.76107 34.6142 2.99038C34.9441 3.21567 35.2117 3.53149 35.4168 3.93782C35.622 4.34012 35.7247 4.85106 35.7247 5.4706V11.7647H34.6504V10.2983H34.584C34.4554 10.5719 34.2643 10.8374 34.0108 11.0949C33.7573 11.3523 33.4396 11.5636 33.0573 11.7285C32.6751 11.8934 32.2265 11.9759 31.7116 11.9759ZM31.8564 10.9923C32.4277 10.9923 32.9226 10.8655 33.341 10.6121C33.7593 10.3586 34.0811 10.0227 34.3065 9.60431C34.5358 9.18189 34.6504 8.71723 34.6504 8.21031V6.87064C34.57 6.94707 34.4352 7.01546 34.2461 7.07582C34.0611 7.13616 33.8458 7.19047 33.6005 7.23874C33.359 7.283 33.1176 7.32121 32.8763 7.35341C32.6349 7.38559 32.4176 7.41375 32.2245 7.43789C31.7015 7.50226 31.255 7.60283 30.8848 7.73962C30.5147 7.8764 30.2311 8.06549 30.0339 8.30687C29.8368 8.54423 29.7382 8.84998 29.7382 9.22413C29.7382 9.78736 29.9394 10.2239 30.3418 10.5336C30.744 10.8394 31.249 10.9923 31.8564 10.9923ZM44.4979 11.7647V3.49125H41.9452C41.2814 3.49528 40.7766 3.63408 40.4305 3.90765C40.0886 4.18121 39.9176 4.58955 39.9176 5.13266C39.9176 5.67578 40.0805 6.08413 40.4064 6.3577C40.7322 6.62724 41.207 6.76201 41.8305 6.76201H44.7996V7.77583H41.8305C41.1909 7.77583 40.6478 7.67324 40.2013 7.46806C39.7586 7.26289 39.4207 6.96316 39.1874 6.5689C38.9541 6.17464 38.8373 5.69589 38.8373 5.13266C38.8373 4.56541 38.956 4.08666 39.1934 3.69643C39.4348 3.30217 39.7869 3.00446 40.2495 2.80331C40.7162 2.59813 41.2814 2.49554 41.9452 2.49554H45.5237V11.7647H44.4979ZM38.252 11.7647L40.9193 7.15426H42.096L39.4287 11.7647H38.252ZM53.7236 5.95941V6.97323H48.5822V5.95941H53.7236ZM55.7125 3.50936V2.49554H62.9541V3.50936H59.8884V11.7647H58.8143V3.50936H55.7125ZM68.6858 11.9578C67.8852 11.9578 67.1772 11.7547 66.5616 11.3483C65.9501 10.942 65.4714 10.3808 65.1254 9.66466C64.7794 8.94453 64.6065 8.11376 64.6065 7.17236C64.6065 6.22291 64.7794 5.38813 65.1254 4.668C65.4714 3.94385 65.9501 3.38061 66.5616 2.97831C67.1772 2.57199 67.8852 2.36881 68.6858 2.36881C69.4865 2.36881 70.1925 2.57199 70.804 2.97831C71.4155 3.38464 71.8942 3.94787 72.2402 4.668C72.5903 5.38813 72.7652 6.22291 72.7652 7.17236C72.7652 8.11376 72.5922 8.94453 72.2462 9.66466C71.9002 10.3808 71.4196 10.942 70.804 11.3483C70.1925 11.7547 69.4865 11.9578 68.6858 11.9578ZM68.6858 10.9742C69.3295 10.9742 69.8746 10.8012 70.3213 10.4552C70.7678 10.1092 71.1057 9.64857 71.335 9.07327C71.5683 8.49797 71.685 7.86434 71.685 7.17236C71.685 6.48039 71.5683 5.84476 71.335 5.26542C71.1057 4.6861 70.7678 4.22144 70.3213 3.87144C69.8746 3.52142 69.3295 3.34642 68.6858 3.34642C68.0462 3.34642 67.501 3.52142 67.0504 3.87144C66.6039 4.22144 66.264 4.6861 66.0305 5.26542C65.8013 5.84476 65.6866 6.48039 65.6866 7.17236C65.6866 7.86434 65.8013 8.49797 66.0305 9.07327C66.264 9.64857 66.6039 10.1092 67.0504 10.4552C67.4971 10.8012 68.0422 10.9742 68.6858 10.9742Z" fill="black"/>
<path d="M42.0392 33.6732V41.8301H12.2353C6.18037 41.8301 1.25488 36.9046 1.25488 30.8497C1.25488 24.7948 6.18037 19.8693 12.2353 19.8693H42.0392V28.0261H14.2745C12.549 28.0261 11.1372 29.1242 11.1372 30.8497C11.1372 32.5752 12.549 33.6732 14.2745 33.6732H42.0392ZM62.1053 19.5556H85.0073C91.0622 19.5556 95.9877 24.7948 95.9877 30.8497C95.9877 36.9046 91.0622 42.1438 85.0073 42.1438H62.1053C56.0504 42.1438 51.125 36.9046 51.125 30.8497C51.125 24.7948 56.0504 19.5556 62.1053 19.5556ZM82.9681 27.7124H64.1446C62.4191 27.7124 61.0073 29.1242 61.0073 30.8497C61.0073 32.5752 62.4191 33.9869 64.1446 33.9869H82.9681C84.6936 33.9869 86.1053 32.5752 86.1053 30.8497C86.1053 29.1242 84.6936 27.7124 82.9681 27.7124ZM105.407 41.8301V19.8693H115.321L137.218 32.4183V19.8693H147.132V41.8301H137.218L115.321 29.281V41.8301H105.407ZM157.176 41.8301V19.8693H197.961V25.5163H167.09V28.0261H196.706V33.6732H167.09V41.8301H157.176Z" fill="#EF6323"/>
</svg>
