<svg width="24" height="24" viewBox="0 0 24 24" fill="none" xmlns="http://www.w3.org/2000/svg">
<path d="M18 21C18 18.8783 17.1571 16.8434 15.6569 15.3431C14.1566 13.8429 12.1217 13 10 13C7.87827 13 5.84344 13.8429 4.34315 15.3431C2.84285 16.8434 2 18.8783 2 21" fill="white"/>
<path d="M18 21C18 18.8783 17.1571 16.8434 15.6569 15.3431C14.1566 13.8429 12.1217 13 10 13C7.87827 13 5.84344 13.8429 4.34315 15.3431C2.84285 16.8434 2 18.8783 2 21H18Z" stroke="white" stroke-width="2" stroke-linecap="round" stroke-linejoin="round"/>
<path d="M10 13C12.7614 13 15 10.7614 15 8C15 5.23858 12.7614 3 10 3C7.23858 3 5 5.23858 5 8C5 10.7614 7.23858 13 10 13Z" fill="white" stroke="white" stroke-width="2" stroke-linecap="round" stroke-linejoin="round"/>
<path d="M21.9998 20C21.9998 16.63 19.9998 13.5 17.9998 12C18.6572 11.5067 19.1829 10.859 19.5304 10.1142C19.8778 9.3694 20.0363 8.55042 19.9918 7.72975C19.9473 6.90908 19.7012 6.11204 19.2753 5.40915C18.8493 4.70626 18.2567 4.11921 17.5498 3.69995" stroke="white" stroke-width="2" stroke-linecap="round" stroke-linejoin="round"/>
</svg>
