<svg width="543" height="93" viewBox="0 0 543 93" fill="none" xmlns="http://www.w3.org/2000/svg">
<g clip-path="url(#clip0_69_938)">
<path d="M176.64 52.48V78.08H166.4V90.88H125.952V78.08H0L76.928 1.28H127.104L75.776 52.48H125.952V26.88H166.4V52.48H176.64ZM229.175 0H322.615C347.319 0 367.415 21.376 367.415 46.08C367.415 70.784 347.319 92.16 322.615 92.16H229.175C204.471 92.16 184.375 70.784 184.375 46.08C184.375 21.376 204.471 0 229.175 0ZM314.295 33.28H237.495C230.455 33.28 224.695 39.04 224.695 46.08C224.695 53.12 230.455 58.88 237.495 58.88H314.295C321.335 58.88 327.095 53.12 327.095 46.08C327.095 39.04 321.335 33.28 314.295 33.28ZM542.765 52.48V78.08H532.525V90.88H492.077V78.08H366.125L443.053 1.28H493.229L441.901 52.48H492.077V26.88H532.525V52.48H542.765Z" fill="#EF6323"/>
</g>
<defs>
<clipPath id="clip0_69_938">
<rect width="543" height="93" fill="white"/>
</clipPath>
</defs>
</svg>
