<svg width="24" height="24" viewBox="0 0 24 24" fill="none" xmlns="http://www.w3.org/2000/svg">
<path d="M9.01302 10.7232C8.87237 10.7753 8.75368 10.8737 8.67648 11.0023C8.59928 11.1309 8.5682 11.282 8.58834 11.4306L8.63967 11.8133C8.66865 12.0162 8.65 12.223 8.5852 12.4174C8.5204 12.6118 8.41123 12.7885 8.26633 12.9334L6.86627 14.3334C6.61873 14.581 6.28298 14.72 5.9329 14.72C5.58282 14.72 5.24708 14.581 4.99953 14.3334L3.59948 12.9334C3.35193 12.6858 3.21286 12.3501 3.21286 12C3.21286 11.6499 3.35193 11.3142 3.59948 11.0666C5.82738 8.83873 8.84907 7.5871 11.9998 7.5871C15.1505 7.5871 18.1722 8.83873 20.4001 11.0666C20.6477 11.3142 20.7867 11.6499 20.7867 12C20.7867 12.3501 20.6477 12.6858 20.4001 12.9334L19.0001 14.3334C18.7525 14.581 18.4168 14.72 18.0667 14.72C17.7166 14.72 17.3809 14.581 17.1333 14.3334L15.7333 12.9334C15.5884 12.7885 15.4792 12.6118 15.4144 12.4174C15.3496 12.223 15.331 12.0162 15.3599 11.8133L15.4145 11.4311C15.4348 11.28 15.4021 11.1266 15.3221 10.9968C15.242 10.8671 15.1195 10.7691 14.9754 10.7194C13.0421 10.0618 10.9455 10.0631 9.01302 10.7232Z" fill="white" stroke="white" stroke-width="2" stroke-linecap="round" stroke-linejoin="round"/>
</svg>
