<svg width="483" height="90" viewBox="0 0 483 90" fill="none" xmlns="http://www.w3.org/2000/svg">
<g clip-path="url(#clip0_69_1062)">
<path d="M128.384 76.928L118.144 89.6H72.576L0 0H45.568L95.36 61.44L105.6 48.768L66.048 0H111.616L128.384 20.736L145.152 0H190.72L151.168 48.768L161.408 61.44L211.2 0H256.768L184.192 89.6H138.624L128.384 76.928ZM261.875 89.6V0H302.323V89.6H261.875ZM436.785 30.72H353.073V40.96H436.785C440.369 40.96 442.417 39.04 442.417 35.84C442.417 32.64 440.369 30.72 436.785 30.72ZM353.073 89.6H312.625V0H447.025C469.425 0 482.865 17.92 482.865 35.84C482.865 53.76 469.425 71.68 447.025 71.68H353.073V89.6Z" fill="#EF6323"/>
</g>
<defs>
<clipPath id="clip0_69_1062">
<rect width="483" height="90" fill="white"/>
</clipPath>
</defs>
</svg>
